<?xml version="1.0" standalone="no"?>
<!DOCTYPE svg PUBLIC "-//W3C//DTD SVG 20010904//EN"
 "http://www.w3.org/TR/2001/REC-SVG-20010904/DTD/svg10.dtd">
<svg version="1.0" xmlns="http://www.w3.org/2000/svg"
 width="1536.000000pt" height="1024.000000pt" viewBox="0 0 1536.000000 1024.000000"
 preserveAspectRatio="xMidYMid meet">

<rect width="100%" height="100%" fill="#1A1A1A"/>

<g transform="translate(0.000000,1024.000000) scale(0.100000,-0.100000)"
fill="#F5F5F5" stroke="none">
<path d="M5300 6635 l0 -195 -300 0 -300 0 0 -247 c0 -137 -1 -509 -3 -828 l-2
-580 -292 -3 -293 -2 0 830 0 830 -297 2 -298 3 -3 180 c-1 98 0 185 2 192 4
10 180 13 896 13 l890 0 0 -195z m1540 171 c317 -62 503 -219 557 -469 19 -90
12 -296 -12 -377 -46 -152 -148 -272 -287 -339 -45 -22 -116 -48 -155 -58 -40
-10 -73 -21 -73 -24 0 -5 155 -197 461 -569 52 -63 107 -132 123 -152 l28 -38
-338 0 -339 0 -268 350 -269 350 -104 0 -104 0 -2 -347 -3 -348 -292 -3 -293
-2 0 1026 0 1025 643 -4 c546 -4 655 -7 727 -21z m1457 -98 c-6 -117 -34 -866
-40 -1048 l-2 -85 -120 -60 c-66 -33 -191 -97 -278 -143 -104 -54 -159 -78
-161 -70 -3 7 -7 135 -10 283 -4 149 -11 392 -16 540 -5 149 -12 368 -16 488
l-7 217 328 0 328 0 -6 -122z m1149 -130 c446 -677 456 -690 470 -676 8 8 150
218 317 468 l303 455 349 0 350 0 0 -1020 0 -1020 -287 -3 -288 -2 -2 641 -3
641 -34 -49 c-34 -48 -363 -537 -583 -865 -65 -98 -123 -178 -128 -178 -6 0
-173 246 -373 546 l-362 546 -5 -638 -5 -639 -290 0 -290 0 -3 1023 -2 1022
350 0 350 0 166 -252z m-1186 -1518 l0 -280 -285 0 -286 0 3 141 3 141 275
139 c151 76 278 139 283 139 4 0 7 -126 7 -280z"/>
<path d="M6060 6161 l0 -311 228 0 c358 0 448 31 514 175 19 42 23 67 23 150
0 91 -2 104 -28 147 -34 58 -76 92 -153 120 -54 20 -82 22 -321 26 l-263 4 0
-311z"/>
</g>
</svg>
