<svg width="772" height="204" viewBox="0 0 772 204" fill="none" xmlns="http://www.w3.org/2000/svg">
<path d="M335 0C351.167 2.66667 384.7 18.9 389.5 62.5C394.3 106.1 355.167 124.667 335 128.5L396 204H329L275.5 136.5H255V204H195.5V0H335ZM474.5 204H417.5V175.5L474.5 147V204ZM577 0L638 92L701.5 0H772V204H713.5V76.5L638 186L565.5 76.5L564 204H506.5V0H577ZM178.5 37.5H118.5V203.5H59V37.5H0V0H178.5V37.5ZM474.5 124.5L417.5 153.5L413 0H477.5L474.5 124.5ZM330.5 65.5C330.5 39.5 310.5 35 300.5 36H255V96H300.5C310.5 96.6667 330.5 91.5 330.5 65.5Z" fill="white"/>
</svg>
