<svg width="1254" height="836" viewBox="0 0 1254 836" fill="none" xmlns="http://www.w3.org/2000/svg">
<rect width="1254" height="836" fill="#FFFBFB"/>
<rect width="1254" height="836" fill="#1A1A1A"/>
<path d="M587 316C603.167 318.667 636.7 334.9 641.5 378.5C646.3 422.1 607.167 440.667 587 444.5L648 520H581L527.5 452.5H507V520H447.5V316H587ZM726.5 520H669.5V491.5L726.5 463V520ZM829 316L890 408L953.5 316H1024V520H965.5V392.5L890 502L817.5 392.5L816 520H758.5V316H829ZM430.5 353.5H370.5V519.5H311V353.5H252V316H430.5V353.5ZM726.5 440.5L669.5 469.5L665 316H729.5L726.5 440.5ZM582.5 381.5C582.5 355.5 562.5 351 552.5 352H507V412H552.5C562.5 412.667 582.5 407.5 582.5 381.5Z" fill="#F5F5F5"/>
</svg>
